<?xml version="1.0" standalone="no"?>
<!DOCTYPE svg PUBLIC "-//W3C//DTD SVG 20010904//EN"
 "http://www.w3.org/TR/2001/REC-SVG-20010904/DTD/svg10.dtd">
<svg version="1.0" xmlns="http://www.w3.org/2000/svg"
 width="494.000000pt" height="124.000000pt" viewBox="0 0 494.000000 124.000000"
 preserveAspectRatio="xMidYMid meet">

<g transform="translate(0.000000,124.000000) scale(0.100000,-0.100000)"
fill="#000000" stroke="none">
<path d="M0 620 l0 -620 2470 0 2470 0 0 620 0 620 -2470 0 -2470 0 0 -620z
m1158 108 l2 -288 32 -8 c70 -18 25 -42 -79 -42 -32 0 -43 4 -43 15 0 12 -6
12 -37 -5 -112 -60 -235 21 -250 163 -10 94 32 179 107 217 42 21 113 26 154
10 l26 -10 0 85 c0 75 -2 85 -22 99 -12 9 -33 16 -45 16 -33 0 -29 28 5 33 15
2 54 4 87 3 l60 -1 3 -287z m239 256 c15 -24 15 -29 2 -53 -17 -31 -68 -41
-89 -16 -16 19 -16 60 0 80 20 25 67 19 87 -11z m530 0 c15 -24 15 -29 2 -53
-17 -31 -68 -41 -89 -16 -16 19 -16 60 0 80 20 25 67 19 87 -11z m-1327 -257
c94 -250 125 -307 164 -307 9 0 16 -7 16 -15 0 -13 -21 -15 -125 -15 -104 0
-125 2 -125 15 0 8 6 15 14 15 8 0 26 4 40 10 l25 9 -26 76 -27 76 -100 -3
-99 -3 -18 -50 c-28 -79 -25 -92 21 -106 22 -7 40 -18 40 -26 0 -10 -23 -13
-100 -13 -81 0 -100 3 -100 15 0 8 13 21 29 30 30 15 42 41 191 433 64 168 63
169 180 -141z m1830 228 c0 -8 -9 -15 -19 -15 -28 0 -51 -10 -51 -23 0 -15
131 -370 140 -380 6 -7 103 230 130 320 16 54 10 69 -34 77 -22 4 -36 13 -36
21 0 12 20 15 110 15 84 0 110 -3 110 -13 0 -7 -15 -19 -34 -25 -22 -8 -39
-24 -50 -46 -18 -38 -180 -449 -190 -483 -5 -15 -15 -23 -30 -23 -20 0 -31 24
-115 253 -51 138 -99 262 -106 274 -8 12 -28 24 -45 28 -16 4 -30 13 -30 21 0
11 24 14 125 14 104 0 125 -2 125 -15z m-800 -105 l0 -60 60 0 c53 0 60 -2 60
-20 0 -18 -7 -20 -60 -20 l-60 0 0 -138 c0 -166 7 -182 76 -182 53 0 61 -22
13 -39 -57 -20 -117 -14 -144 14 -24 24 -25 28 -25 185 l0 160 -40 0 c-33 0
-40 3 -40 20 0 17 7 20 40 20 l40 0 0 60 0 60 40 0 40 0 0 -60z m-230 -228 c0
-184 4 -202 42 -202 10 0 18 -7 18 -15 0 -12 -18 -15 -100 -15 -80 0 -100 3
-100 14 0 8 10 16 23 18 22 3 22 5 22 163 l0 160 -32 10 c-18 5 -33 15 -33 21
0 14 30 20 108 23 l52 1 0 -178z m530 0 c0 -184 4 -202 42 -202 10 0 18 -7 18
-15 0 -12 -18 -15 -100 -15 -80 0 -100 3 -100 14 0 8 10 16 23 18 22 3 22 5
22 163 l0 160 -32 10 c-18 5 -33 15 -33 21 0 14 30 20 108 23 l52 1 0 -178z
m1114 164 c48 -20 79 -69 84 -133 l4 -53 -131 0 -131 0 0 -30 c0 -80 55 -140
127 -140 38 0 50 5 79 34 21 21 41 33 49 29 19 -7 19 -9 -6 -44 -64 -90 -234
-91 -297 -2 -73 105 -47 269 51 328 48 29 118 33 171 11z m276 -11 l0 -26 37
26 c68 45 137 26 131 -38 -4 -36 -26 -52 -61 -43 -20 5 -27 13 -27 31 0 32
-20 32 -54 0 -26 -24 -26 -26 -26 -154 0 -119 2 -131 19 -141 11 -5 29 -10 40
-10 12 0 21 -7 21 -15 0 -12 -19 -15 -110 -15 -91 0 -110 3 -110 15 0 8 8 15
18 15 37 0 42 19 42 165 0 150 -3 161 -52 178 -10 4 -18 11 -18 16 0 11 33 17
103 20 44 1 47 -1 47 -24z m550 -5 l32 -30 35 27 c24 19 50 28 87 31 48 4 56
1 87 -26 l34 -30 3 -149 c2 -83 8 -153 14 -160 6 -7 19 -13 29 -13 11 0 19 -7
19 -15 0 -12 -18 -15 -100 -15 -82 0 -100 3 -100 15 0 8 8 15 19 15 37 0 43
23 40 159 -3 110 -7 132 -23 150 -24 26 -61 27 -103 1 l-33 -20 0 -140 0 -140
25 -6 c14 -3 25 -12 25 -20 0 -11 -21 -14 -101 -14 -75 0 -100 3 -97 12 3 7
15 15 29 18 24 6 24 7 27 146 2 131 1 141 -19 163 -18 19 -29 22 -57 17 -19
-3 -45 -15 -58 -27 -23 -21 -24 -29 -24 -149 0 -130 6 -150 42 -150 10 0 18
-7 18 -15 0 -12 -18 -15 -100 -15 -82 0 -100 3 -100 15 0 8 8 15 18 15 37 0
42 20 42 159 0 143 -9 171 -52 171 -10 0 -18 6 -18 14 0 15 43 26 106 26 41 0
44 -2 44 -27 l0 -26 23 20 c36 33 60 42 108 43 38 0 53 -5 79 -30z m641 14
c48 -24 59 -65 59 -218 0 -142 1 -146 51 -146 25 0 24 -16 0 -30 -35 -18 -90
-12 -115 13 -23 23 -23 23 -48 4 -33 -25 -109 -33 -148 -17 -88 36 -74 159 22
194 23 8 66 24 93 34 l50 18 0 48 c0 42 -4 52 -27 69 -23 17 -33 19 -55 11
-24 -8 -28 -15 -28 -47 0 -42 -17 -59 -55 -55 -17 2 -28 12 -34 30 -19 53 57
107 152 108 29 0 67 -7 83 -16z"/>
<path d="M936 749 c-76 -60 -86 -220 -18 -291 30 -33 88 -38 127 -12 24 16 25
19 25 144 l0 128 -31 26 c-37 31 -67 33 -103 5z"/>
<path d="M418 742 c-21 -54 -38 -102 -38 -105 0 -4 36 -7 80 -7 l79 0 -25 68
c-14 37 -33 84 -42 105 l-17 38 -37 -99z"/>
<path d="M2910 743 c-20 -18 -33 -41 -37 -65 l-6 -38 87 0 86 0 0 30 c0 90
-69 128 -130 73z"/>
<path d="M4414 581 c-48 -22 -74 -54 -74 -93 0 -36 24 -58 63 -58 59 0 75 21
79 100 3 80 0 82 -68 51z"/>
</g>
</svg>
